#!OML:ASF F:\VICON\USERDATA\INSTALL\rory3\rory3.ASF
:FULLY-SPECIFIED
:DEGREES
571
root 1.23156 29.1219 -5.12126 -166.408 -82.0302 -183.34
lowerback 2.8311 -0.630006 0.36709
upperback -0.189834 -0.809735 2.66966
thorax -1.74864 -0.40863 2.57117
lowerneck -14.6347 3.22519 -8.89653
upperneck 41.4071 6.28739 -1.4121
head 17.5717 0.190972 1.84824
rclavicle -1.39149e-015 -2.06736e-014
rhumerus -28.9465 -13.8406 -67.0222
rradius 31.8019
rwrist 16.2844
rhand -24.1598 0.501462
rfingers 7.12502
rthumb 2.323 -29.4656
lclavicle -1.39149e-015 -2.06736e-014
lhumerus -34.7685 15.3384 76.4545
lradius 34.0572
lwrist -2.93544
lhand -16.5605 27.6995
lfingers 7.12502
lthumb 9.65941 57.4581
rfemur -17.121 -7.23594 23.1523
rtibia 30.5914
rfoot -25.1746 -8.20934
rtoes 17.2149
lfemur -23.8559 9.90399 -25.9562
ltibia 27.8332
lfoot -9.944 8.82939
ltoes -14.0532
572
root 1.22018 29.1179 -5.11941 -161.684 -82.8595 -187.938
lowerback 2.64862 -0.461583 0.0787264
upperback -0.278446 -0.593452 2.49616
thorax -1.74511 -0.295902 2.54388
lowerneck -14.4773 3.07421 -9.18143
upperneck 41.429 6.15028 -1.411
head 17.5455 0.100318 1.87284
rclavicle 3.97569e-016 -2.38542e-015
rhumerus -29.2845 -14.0286 -66.5408
rradius 32.2081
rwrist 15.9239
rhand -24.369 0.450521
rfingers 7.12502
rthumb 2.12098 -29.5187
lclavicle 3.97569e-016 -2.38542e-015
lhumerus -34.6359 15.6638 76.5371
lradius 33.7047
lwrist -3.39336
lhand -16.5415 27.5156
lfingers 7.12502
lthumb 9.67771 57.2733
rfemur -17.5754 -7.91565 22.6697
rtibia 31.3195
rfoot -25.6211 -8.13707
rtoes 17.3753
lfemur -23.7394 9.0757 -26.4055
ltibia 27.4854
lfoot -10.1862 8.28337
ltoes -12.6679
573
root 1.21469 29.1074 -5.11478 -157.347 -83.81 -192.078
lowerback 2.45674 -0.424532 -0.036791
upperback -0.344012 -0.547876 2.36078
thorax -1.70687 -0.271033 2.46583
lowerneck -14.5208 2.9354 -9.31706
upperneck 41.4274 5.99498 -1.34027
head 17.5572 0.037005 1.90621
rclavicle 7.7526e-015 -3.18055e-015
rhumerus -29.3469 -14.3718 -66.2626
rradius 32.4302
rwrist 15.7235
rhand -24.3949 0.515818
rfingers 7.12502
rthumb 2.09593 -29.4536
lclavicle 7.7526e-015 -3.18055e-015
lhumerus -34.4885 16.4419 76.2223
lradius 33.322
lwrist -4.59481
lhand -15.482 26.9176
lfingers 7.12502
lthumb 10.6998 56.6252
rfemur -18.1494 -8.75924 22.4797
rtibia 32.0995
rfoot -25.9123 -8.15213
rtoes 17.0474
lfemur -23.7243 8.02026 -26.5775
ltibia 27.1183
lfoot -10.2683 7.81595
ltoes -11.4446
574
root 1.20461 29.1012 -5.1186 -153.98 -84.8108 -195.495
lowerback 2.43646 -0.435197 -0.0994127
upperback -0.308107 -0.564457 2.28897
thorax -1.658 -0.27884 2.42713
lowerneck -14.5387 2.89605 -9.25155
upperneck 41.3806 5.95863 -1.35967
head 17.5406 0.0443296 1.88359
rclavicle 1.98785e-015 2.38542e-015
rhumerus -29.3009 -14.883 -66.0945
rradius 32.4747
rwrist 15.8148
rhand -24.5182 0.694623
rfingers 7.12502
rthumb 1.97691 -29.276
lclavicle 1.98785e-015 2.38542e-015
lhumerus -34.4593 17.041 75.935
lradius 33.156
lwrist -5.12475
lhand -15.0294 26.6809
lfingers 7.12502
lthumb 11.1364 56.3654
rfemur -18.351 -9.64307 22.5252
rtibia 32.8078
rfoot -26.1666 -8.14018
rtoes 16.497
lfemur -23.3879 6.8871 -26.3126
ltibia 26.8348
lfoot -10.5476 7.17622
ltoes -8.36643
575
root 1.18973 29.0866 -5.12933 -149.35 -85.7327 -200.423
lowerback 2.59707 -0.412854 -0.161215
upperback -0.166411 -0.537323 2.16583
thorax -1.60442 -0.26554 2.33459
lowerneck -14.5613 2.8466 -9.31408
upperneck 41.3316 5.91688 -1.29267
head 17.5147 0.0425461 1.92197
rclavicle -1.21259e-014 1.03368e-014
rhumerus -29.2956 -15.3349 -66.0601
rradius 32.588
rwrist 15.8882
rhand -24.7183 0.884264
rfingers 7.12502
rthumb 1.78362 -29.088
lclavicle -1.21259e-014 1.03368e-014
lhumerus -34.3543 17.4427 75.6894
lradius 33.0807
lwrist -5.09749
lhand -14.6896 26.6621
lfingers 7.12502
lthumb 11.4641 56.3286
rfemur -18.2023 -10.2714 22.478
rtibia 33.4735
rfoot -26.5369 -8.10903
rtoes 15.9195
lfemur -22.9256 6.65342 -26.2474
ltibia 26.6275
lfoot -10.5112 6.19593
ltoes -8.84813
576
root 1.17871 29.0845 -5.14289 -143.184 -86.6974 -206.873
lowerback 2.83546 -0.405999 -0.164547
upperback -0.0278972 -0.528774 2.07586
thorax -1.59713 -0.262018 2.24489
lowerneck -14.744 2.83433 -9.19193
upperneck 41.3514 5.93477 -1.30644
head 17.5776 0.0748574 1.90621
rclavicle 8.54774e-015 2.14687e-014
rhumerus -29.328 -15.663 -66.0695
rradius 32.8034
rwrist 15.815
rhand -24.7757 0.908137
rfingers 7.12502
rthumb 1.72824 -29.0646
lclavicle 8.54774e-015 2.14687e-014
lhumerus -34.1044 17.8863 75.431
lradius 32.837
lwrist -5.09944
lhand -14.5374 26.6091
lfingers 7.12502
lthumb 11.6109 56.2675
rfemur -18.0563 -10.7596 22.5686
rtibia 34.0684
rfoot -26.8129 -8.38721
rtoes 15.0211
lfemur -22.5279 6.22472 -25.9702
ltibia 26.4728
lfoot -10.5847 5.13744
ltoes -6.946
577
root 1.17126 29.0851 -5.16522 -130.358 -87.4925 -219.863
lowerback 2.96009 -0.393047 -0.462106
upperback 0.0748727 -0.521723 2.03091
thorax -1.55965 -0.256781 2.36624
lowerneck -14.7822 2.7999 -9.13185
upperneck 41.3263 5.96823 -1.47612
head 17.5877 0.0839052 1.82777
rclavicle -5.1684e-015 1.03368e-014
rhumerus -29.4183 -15.4967 -66.0469
rradius 33.1223
rwrist 15.0059
rhand -24.758 0.855874
rfingers 7.12502
rthumb 1.7453 -29.1167
lclavicle -5.1684e-015 1.03368e-014
lhumerus -33.8215 18.3537 75.2744
lradius 32.4937
lwrist -5.15442
lhand -14.941 26.7094
lfingers 7.12502
lthumb 11.2216 56.3893
rfemur -18.0878 -11.136 22.6101
rtibia 34.6881
rfoot -27.053 -8.84338
rtoes 14.0909
lfemur -22.3221 5.82555 -25.8494
ltibia 26.2993
lfoot -10.4598 4.19158
ltoes -6.15104
578
root 1.15767 29.0875 -5.17948 -109.956 -87.9979 -240.253
lowerback 2.74696 -0.318965 -0.674158
upperback 0.193435 -0.432298 1.94528
thorax -1.32161 -0.212986 2.39098
lowerneck -14.8153 2.70718 -9.17897
upperneck 41.27 5.88227 -1.47457
head 17.5685 0.0579555 1.82601
rclavicle 1.98785e-016 -4.77083e-015
rhumerus -29.5026 -15.4305 -66.0142
rradius 33.4222
rwrist 14.2671
rhand -24.9009 0.893006
rfingers 7.12502
rthumb 1.60725 -29.0807
lclavicle 1.98785e-016 -4.77083e-015
lhumerus -33.4255 18.7299 75.1627
lradius 32.1582
lwrist -4.98699
lhand -15.2121 26.7481
lfingers 7.12502
lthumb 10.9602 56.442
rfemur -18.3078 -11.5319 22.5911
rtibia 35.34
rfoot -27.1696 -9.06563
rtoes 13.4647
lfemur -22.3167 5.93558 -25.9317
ltibia 26.1771
lfoot -10.3132 3.10417
ltoes -7.25646
579
root 1.13496 29.0897 -5.18107 -83.5977 -88.2038 -266.624
lowerback 2.46642 -0.264178 -0.723238
upperback 0.331333 -0.363407 1.88866
thorax -1.02628 -0.181603 2.35488
lowerneck -14.8651 2.65357 -9.26546
upperneck 41.2497 5.86191 -1.45466
head 17.5688 0.0504419 1.85103
rclavicle -6.95746e-015 7.95139e-015
rhumerus -29.314 -15.8031 -65.9743
rradius 33.4498
rwrist 14.5673
rhand -24.9001 0.919697
rfingers 7.12502
rthumb 1.60808 -29.054
lclavicle -6.95746e-015 7.95139e-015
lhumerus -33.1228 19.3021 75.0346
lradius 31.9293
lwrist -4.78048
lhand -15.3707 26.6661
lfingers 7.12502
lthumb 10.8072 56.3681
rfemur -18.5101 -12.1998 22.5678
rtibia 36.0966
rfoot -27.1539 -9.05915
rtoes 12.3091
lfemur -22.2042 5.97427 -25.9567
ltibia 26.021
lfoot -10.2827 2.11387
ltoes -7.45067
580
root 1.10982 29.0867 -5.17802 -54.6969 -87.8543 -295.722
lowerback 2.37441 -0.350832 -0.80375
upperback 0.494179 -0.483655 1.87325
thorax -0.801728 -0.244725 2.38644
lowerneck -14.9312 2.72153 -9.32644
upperneck 41.2871 6.07972 -1.59683
head 17.6077 0.110344 1.83849
rclavicle 1.39149e-015 6.36111e-015
rhumerus -28.5593 -16.8636 -66.1001
rradius 32.8294
rwrist 15.8008
rhand -24.7205 1.19862
rfingers 7.12502
rthumb 1.78152 -28.7737
lclavicle 1.39149e-015 6.36111e-015
lhumerus -32.9865 20.1475 74.9064
lradius 31.6906
lwrist -4.93647
lhand -15.4639 26.7437
lfingers 7.12502
lthumb 10.7174 56.4503
rfemur -18.5506 -13.2661 22.3785
rtibia 36.9609
rfoot -26.9516 -8.93058
rtoes 10.5031
lfemur -21.84 5.66743 -26.0421
ltibia 25.8211
lfoot -10.3072 1.27524
ltoes -7.34244
581
root 1.08898 29.0868 -5.18205 -40.656 -87.1619 -309.713
lowerback 2.09717 -0.388446 -1.05132
upperback 0.564341 -0.53931 1.80542
thorax -0.570245 -0.274259 2.45459
lowerneck -14.8368 2.81875 -9.23356
upperneck 41.1569 6.32724 -1.89573
head 17.5227 0.200655 1.72923
rclavicle -7.55382e-015 -1.66979e-014
rhumerus -27.9021 -17.7545 -66.3877
rradius 32.2737
rwrist 16.6992
rhand -24.797 1.39073
rfingers 7.12502
rthumb 1.70761 -28.5822
lclavicle -7.55382e-015 -1.66979e-014
lhumerus -32.8768 20.9644 74.7682
lradius 31.4344
lwrist -5.12932
lhand -15.6156 26.7221
lfingers 7.12502
lthumb 10.571 56.4363
rfemur -18.9408 -14.0866 22.1241
rtibia 37.9576
rfoot -26.6861 -8.67281
rtoes 9.29675
lfemur -21.7305 5.79409 -26.32
ltibia 25.5571
lfoot -10.3166 0.142438
ltoes -7.54602
